<?xml version="1.0" encoding="UTF-8"?>
<svg height="18" viewBox="0 0 53.701 19.966" xmlns="http://www.w3.org/2000/svg">
<g transform="translate(0)" fill="#fff700">
<path transform="translate(-57.112 -11.863)" d="M79.138,14h-7.2A4.534,4.534,0,0,0,67.4,18.534v.7a.558.558,0,0,0,.672.55l2.58-.488a.474.474,0,0,0,.382-.458,1.2,1.2,0,0,1,1.206-1.206h6.594a1.2,1.2,0,0,1,1.206,1.206v1.343L70.85,21.907a4.234,4.234,0,0,0-3.45,4.152V27.28a4.534,4.534,0,0,0,4.534,4.534h7.2a4.534,4.534,0,0,0,4.534-4.534V18.534A4.534,4.534,0,0,0,79.138,14Zm.9,12.99A1.2,1.2,0,0,1,78.833,28.2H72.239a1.2,1.2,0,0,1-1.206-1.206v-.412a1.21,1.21,0,0,1,.992-1.191l8.029-1.511V26.99Z"/>
<path d="M7.083,16.333h-1.8a1.668,1.668,0,0,1-1.664-1.664V.565A.574.574,0,0,0,3.053,0H.565A.574.574,0,0,0,0,.565V15.433a4.534,4.534,0,0,0,4.534,4.534H7.083a.574.574,0,0,0,.565-.565V16.9A.563.563,0,0,0,7.083,16.333Z"/>
<g transform="translate(30.178)">
<path transform="translate(-197.7 -27.953)" d="M197.7,35.189v8.2a4.534,4.534,0,0,0,4.534,4.534h7.2a4.534,4.534,0,0,0,4.534-4.534V37.219a4.222,4.222,0,0,0-5.022-4.152Zm11.433,9.1h-6.594a1.2,1.2,0,0,1-1.206-1.206v-4.9l7.571-1.435a1.209,1.209,0,0,1,1.435,1.191v5.129A1.2,1.2,0,0,1,209.133,44.286Z"/>
<path transform="translate(-197.7)" d="M201.333,10.014V.565A.574.574,0,0,0,200.768,0h-2.5a.573.573,0,0,0-.565.565v9.449Z"/>
</g>
<path transform="translate(-277.93 -35.179)" d="M331.633,54.58v-12.5a.558.558,0,0,0-.672-.55l-2.5.488a.57.57,0,0,0-.458.55V54.58a.574.574,0,0,0,.565.565h2.5A.564.564,0,0,0,331.633,54.58Z"/>
<path transform="translate(-277.93)" d="M331.175,3.129l-2.5.488a.565.565,0,0,1-.672-.55V.565A.574.574,0,0,1,328.565,0h2.5a.574.574,0,0,1,.565.565V2.58A.555.555,0,0,1,331.175,3.129Z"/>
</g>
</svg>
