<svg xmlns="http://www.w3.org/2000/svg" width="115.68" height="20" viewBox="0 0 115.68 20"><g transform="translate(-1224.239 1567.223)"><path d="M1246.337-1565.085h-7.212a4.542,4.542,0,0,0-4.542,4.542v.7a.566.566,0,0,0,.672.555l2.581-.49a.47.47,0,0,0,.381-.461,1.211,1.211,0,0,1,1.211-1.211h6.606a1.211,1.211,0,0,1,1.211,1.211v1.35l-9.208,1.737a4.24,4.24,0,0,0-3.454,4.166v1.222a4.542,4.542,0,0,0,4.542,4.542h7.212a4.542,4.542,0,0,0,4.542-4.542v-8.778A4.542,4.542,0,0,0,1246.337-1565.085Zm.908,13.018a1.211,1.211,0,0,1-1.211,1.211h-6.606a1.211,1.211,0,0,1-1.211-1.211v-.418a1.211,1.211,0,0,1,.987-1.19l8.041-1.517Z" fill="#fff700"/><path d="M1231.337-1550.856h-1.8a1.666,1.666,0,0,1-1.666-1.666v-14.135a.565.565,0,0,0-.565-.566h-2.5a.565.565,0,0,0-.565.566v14.892a4.541,4.541,0,0,0,4.542,4.542h2.556a.566.566,0,0,0,.566-.565v-2.5A.566.566,0,0,0,1231.337-1550.856Z" fill="#fff700"/><path d="M1265.724-1562.107l-7.637,1.441v-5.991a.566.566,0,0,0-.566-.566h-2.5a.566.566,0,0,0-.566.566v14.892a4.542,4.542,0,0,0,4.542,4.542h7.212a4.541,4.541,0,0,0,4.541-4.542v-6.176A4.239,4.239,0,0,0,1265.724-1562.107Zm1.391,10.04a1.211,1.211,0,0,1-1.211,1.211H1259.3a1.211,1.211,0,0,1-1.211-1.211v-4.9l7.592-1.432a1.211,1.211,0,0,1,1.436,1.19Z" fill="#fff700"/><path d="M1277.957-1547.788V-1560.3a.566.566,0,0,0-.673-.556l-2.5.483a.565.565,0,0,0-.459.555v12.034a.565.565,0,0,0,.566.565h2.5A.566.566,0,0,0,1277.957-1547.788Z" fill="#fff700"/><path d="M1277.5-1564.086l-2.5.483a.565.565,0,0,1-.673-.555v-2.5a.566.566,0,0,1,.566-.566h2.5a.566.566,0,0,1,.566.566v2.015A.567.567,0,0,1,1277.5-1564.086Z" fill="#fff700"/><path d="M1291.321-1554.16a.177.177,0,0,1-.194.193H1286v2.177c0,.86.474,1.457,2.23,1.457s2.229-.6,2.229-1.457v-.369c0-.14.053-.211.193-.211h.457a.187.187,0,0,1,.211.211v.421c0,1.264-.738,2.16-3.108,2.16s-3.107-.9-3.107-2.16v-4.6c0-1.281.754-2.177,3.125-2.177,2.352,0,3.09.9,3.09,2.177Zm-5.32-.51h4.459v-1.632c0-.843-.509-1.458-2.229-1.458-1.739,0-2.23.615-2.23,1.458Z" fill="#fff700"/><path d="M1299.881-1549.929c.07.1.035.21-.123.21h-.562a.378.378,0,0,1-.316-.21l-2.44-3.512-2.371,3.512a.378.378,0,0,1-.316.21h-.491c-.141,0-.193-.1-.123-.21l2.844-4.179-2.774-4.055c-.088-.123-.053-.211.1-.211h.58a.376.376,0,0,1,.316.211l2.353,3.406,2.282-3.406a.374.374,0,0,1,.3-.211h.509c.158,0,.193.088.106.211l-2.739,4.073Z" fill="#fff700"/><path d="M1331.058-1554.16a.176.176,0,0,1-.193.193h-5.127v2.177c0,.86.474,1.457,2.23,1.457s2.229-.6,2.229-1.457v-.369c0-.14.053-.211.194-.211h.456a.187.187,0,0,1,.211.211v.421c0,1.264-.738,2.16-3.108,2.16s-3.107-.9-3.107-2.16v-4.6c0-1.281.755-2.177,3.125-2.177,2.352,0,3.09.9,3.09,2.177Zm-5.32-.51h4.459v-1.632c0-.843-.509-1.458-2.229-1.458-1.738,0-2.23.615-2.23,1.458Z" fill="#fff700"/><path d="M1338.936-1556.6c0-.737-.65-1.211-2.125-1.211-1.457,0-2.089.474-2.089,1.211v.544a1.255,1.255,0,0,0,.983,1.089l2.739.86c.825.264,1.475.79,1.475,1.6v1.036c0,1.035-.931,1.9-3.108,1.9s-3.072-.861-3.072-1.9v-.492a.168.168,0,0,1,.193-.193h.474c.123,0,.175.07.175.193v.457c0,.737.738,1.229,2.23,1.229,1.51,0,2.265-.492,2.265-1.229v-.79c0-.58-.509-.878-1.106-1.072l-2.739-.86a1.9,1.9,0,0,1-1.369-1.668v-.7c0-1.036.807-1.914,2.967-1.914,2.142,0,2.967.878,2.967,1.914v.544c0,.141-.053.194-.211.194h-.456c-.123,0-.193-.053-.193-.194Z" fill="#fff700"/><path d="M1301.7-1552.3a1.826,1.826,0,0,1,1.826-1.825h3.494v-2.177c0-.861-.474-1.458-2.23-1.458s-2.229.6-2.229,1.458v.386a.194.194,0,0,1-.193.193h-.457a.211.211,0,0,1-.211-.211v-.421c0-1.264.738-2.16,3.108-2.16s3.107.9,3.107,2.16v4.6c0,1.281-.754,2.177-3.125,2.177-2.352,0-3.09-.9-3.09-2.177Zm5.32-1.123h-3.211a1.248,1.248,0,0,0-1.248,1.248v.385c0,.842.509,1.457,2.229,1.457,1.739,0,2.23-.615,2.23-1.457Z" fill="#fff700"/><path d="M1322.162-1555.91h-.88a2.02,2.02,0,0,0-2.231-1.688,2.02,2.02,0,0,0-2.231,1.688h-.88a2.883,2.883,0,0,1,3.111-2.568A2.882,2.882,0,0,1,1322.162-1555.91Z" fill="#fff700"/><path d="M1316.82-1555.91h-.88a2.02,2.02,0,0,0-2.231-1.688,2.02,2.02,0,0,0-2.231,1.688h-.88a2.882,2.882,0,0,1,3.111-2.568A2.882,2.882,0,0,1,1316.82-1555.91Z" fill="#fff700"/><rect width="0.88" height="6.295" transform="translate(1310.598 -1555.91)" fill="#fff700"/><rect width="0.88" height="6.295" transform="translate(1315.94 -1555.91)" fill="#fff700"/><rect width="0.88" height="6.295" transform="translate(1321.282 -1555.91)" fill="#fff700"/></g></svg>