<svg xmlns="http://www.w3.org/2000/svg" width="77.179" height="45.891" viewBox="0 0 77.179 45.891"><path d="M68.045-967.913l-.008-.077a1.594,1.594,0,0,0-.072-.385,1.549,1.549,0,0,0-.254-.371l-.136-.2-9.429-9.432a1.712,1.712,0,0,0-2.351.008,1.651,1.651,0,0,0-.483,1.172,1.652,1.652,0,0,0,.486,1.172l6.628,6.628h-17l-.145-.512A25.408,25.408,0,0,0,20.956-988.32a30.075,30.075,0,0,0-30.04,30.04v11.6h0a1.659,1.659,0,0,0,1.66,1.659,1.659,1.659,0,0,0,1.659-1.659h0v-11.6A26.749,26.749,0,0,1,20.956-985,22.012,22.012,0,0,1,41.6-970.342l.336.941H20.956A11.132,11.132,0,0,0,9.836-958.28a15.869,15.869,0,0,0,15.851,15.851,20.637,20.637,0,0,0,20.153-16.88h-.018c0-.015.009-.028.009-.044a1.66,1.66,0,0,0-1.66-1.659,1.659,1.659,0,0,0-1.659,1.659c0,.015.008.028.009.044h-.006A17.242,17.242,0,0,1,25.687-945.75a12.544,12.544,0,0,1-12.53-12.53,7.811,7.811,0,0,1,7.095-7.77v-.031l.7-.008,41.46.008L55.8-959.46a1.652,1.652,0,0,0-.486,1.172,1.653,1.653,0,0,0,.486,1.175,1.659,1.659,0,0,0,2.348,0l9.432-9.432a1.564,1.564,0,0,0,.387-.567.717.717,0,0,1,.027-.19,1.924,1.924,0,0,0,.1-.437A.56.56,0,0,1,68.045-967.913Z" transform="translate(9.084 988.32)" fill="#522b79"/></svg>