<svg xmlns="http://www.w3.org/2000/svg" width="62.719" height="56.35" viewBox="0 0 62.719 56.35"><path d="M-414.417-945.347l20.39-25.028c.839-.885,4.687-5.212,4.61-10.908-.053-3.76-1.771-7.247-5.1-10.366h0c-9.084-8.5-17.568-2.117-23.159,3.427l-12.35,12.585v-6.824a1.7,1.7,0,0,0-1.7-1.7,1.7,1.7,0,0,0-1.7,1.7v11.226a1.7,1.7,0,0,0,1.7,1.7H-420.5a1.7,1.7,0,0,0,1.7-1.7,1.7,1.7,0,0,0-1.7-1.7h-7.429l12.652-12.893c7.593-7.523,12.931-8.495,18.436-3.342,2.619,2.448,3.975,5.1,4.026,7.885.084,4.5-3.232,8.1-3.609,8.5l-20.6,25.263c-.111.129-2.229,2.562-4.828,2.562-2.692-.08-4.657-3.157-4.677-3.186l-18.594-24.693a14.317,14.317,0,0,1-3.146-5.569c-1.223-4.3.119-8.437,3.988-12.307,5.518-5.517,11.188-4.083,13.655-1.767l4.19,4.047a1.693,1.693,0,0,0,2.4-.057,1.683,1.683,0,0,0,.47-1.213,1.677,1.677,0,0,0-.523-1.186l-4.2-4.059a11.56,11.56,0,0,0-7.888-2.968c-.084,0-.17,0-.256,0-2.542.059-6.387.939-10.246,4.8-10.578,10.58-2.807,20.468-1.142,22.343l18.408,24.422c.546.84,3.212,4.66,7.339,4.784h.009C-417.675-941.569-414.737-944.959-414.417-945.347Z" transform="translate(452.134 997.919)" fill="#522b79"/></svg>