<svg xmlns="http://www.w3.org/2000/svg" width="71.429" height="64.273" viewBox="0 0 71.429 64.273"><g transform="translate(0 0)"><g transform="translate(0 0)"><path d="M-132.707-923.792a9.974,9.974,0,0,0-9.963,9.963,9.974,9.974,0,0,0,9.963,9.963,9.973,9.973,0,0,0,9.962-9.963A9.973,9.973,0,0,0-132.707-923.792Zm0,17.108a7.153,7.153,0,0,1-7.145-7.145,7.153,7.153,0,0,1,7.145-7.145,7.153,7.153,0,0,1,7.144,7.145A7.153,7.153,0,0,1-132.707-906.684Z" transform="translate(194.175 968.139)" fill="#522b79"/><path d="M-221.547-988.123a1.405,1.405,0,0,0,1-.413,1.408,1.408,0,0,0,0-1.992l-6.129-6.129,6.13-6.129a1.408,1.408,0,0,0,0-1.992,1.408,1.408,0,0,0-1.992,0l-6.13,6.129-6.129-6.129a1.409,1.409,0,0,0-1.992,0,1.408,1.408,0,0,0,0,1.992l6.129,6.129-6.129,6.129a1.408,1.408,0,0,0,0,1.992,1.4,1.4,0,0,0,1,.413,1.4,1.4,0,0,0,1-.413l6.129-6.128,6.128,6.128A1.4,1.4,0,0,0-221.547-988.123Z" transform="translate(237.205 1005.19)" fill="#522b79"/><path d="M-198.191-967.43h11.64a13.192,13.192,0,0,0,13.191-13.192,13.192,13.192,0,0,0-13.192-13.192h-19.741a1.551,1.551,0,0,0-1.548,1.551,1.551,1.551,0,0,0,1.548,1.551h19.741a10.088,10.088,0,0,1,10.088,10.088,10.088,10.088,0,0,1-10.088,10.088h-11.639a13.192,13.192,0,0,0-13.192,13.192,13.192,13.192,0,0,0,13.192,13.192h14.274l-5.034,4.135a1.551,1.551,0,0,0-.43,2.152,1.552,1.552,0,0,0,2.152.43l9.3-6.977,0,0c.039-.026.073-.059.11-.089s.058-.045.085-.07.029-.022.041-.035c.032-.032.056-.068.084-.1a1.534,1.534,0,0,0,.106-.131l0,0v0c.026-.04.045-.083.067-.125s.051-.092.074-.139l0-.009c.017-.042.026-.085.039-.128l0-.008c.015-.048.033-.094.044-.143v-.008a1.565,1.565,0,0,0,.016-.159c0-.046.013-.091.013-.137v-.007c0-.046-.009-.091-.013-.137a1.559,1.559,0,0,0-.016-.159v-.008c-.01-.05-.029-.1-.044-.143l0-.008c-.014-.042-.022-.086-.039-.128l0-.009q-.034-.071-.074-.139c-.022-.042-.041-.086-.067-.125v0l0,0a1.525,1.525,0,0,0-.106-.13c-.028-.034-.052-.07-.084-.1l0,0c-.028-.028-.062-.05-.092-.076a1.555,1.555,0,0,0-.139-.113l0,0,0,0,0,0-9.291-6.973a1.552,1.552,0,0,0-2.151.43,1.552,1.552,0,0,0,.43,2.153l5.034,4.134h-14.274a10.087,10.087,0,0,1-10.087-10.088A10.087,10.087,0,0,1-198.191-967.43Z" transform="translate(225.452 1000.012)" fill="#522b79"/></g></g></svg>